<?xml version="1.0" encoding="UTF-8"?>
<svg width="512px" height="512px" viewBox="0 0 512 512" version="1.1" xmlns="http://www.w3.org/2000/svg" xmlns:xlink="http://www.w3.org/1999/xlink">
    <!-- Generator: Sketch 59.1 (86144) - https://sketch.com -->
    <title>woot-log</title>
    <desc>Created with Sketch.</desc>
    <g id="Logo" stroke="none" stroke-width="1" fill="none" fill-rule="evenodd">
        <g id="woot-log" fill-rule="nonzero">
            <circle id="Oval" fill="#47A7F6" cx="256" cy="256" r="256"></circle>
        <
  <path d="M18.6 7.2c1 1.3 3.9 4.4 6.3 7.1l4.5 4.7-4.2 8.6c-4 8-4.1 8.5-2 7.9 3.3-1 8.1-3.9 8-4.8-.1-.4-.2-3.1-.2-6.1 0-5.1-.3-5.8-4.8-10.8-2.7-2.9-5.1-6.1-5.5-7.1-.3-.9-1.4-1.7-2.3-1.7-1.6 0-1.5.2.2 2.2zm4.4-1c0 .7.5 2 1 2.8.8 1.3 1.1 1.3 2.7-.2 1.9-2 1.8-2.3-1.4-3.2-1.6-.5-2.3-.3-2.3.6z" stroke="#0000FF" fill="#0000FF"/>
  <path d="m19 12.5 6.4 6.4-3.7 7.9c-4 8.4-4.2 9.2-2.7 9.2.5 0 .9-.3.8-.7-.1-.5 1.5-4.1 3.6-8.1 3.1-6.2 3.5-7.6 2.5-9C23.2 14.6 14.5 6 13.6 6c-.6 0 1.8 2.9 5.4 6.5z" stroke="#0000FF" fill="#0000FF"/>
  <path d="M8.2 11.2c-1.5 2.4-1.7 3.4-.9 4.4.7.7 1.8 2.1 2.6 3 1.2 1.4 1.6 1.3 4.4-1.5l3.1-3.1-2.9-3c-1.6-1.6-3.2-3-3.6-3s-1.6 1.4-2.7 3.2zm20.5-1.4c-1.9 2-2.3 3.7-.7 2.7 1-.6 3.3-4.5 2.7-4.5-.2 0-1.1.8-2 1.8zm1.4 3.5c-.8 1.1-.6 1.8.9 3.2s2 3.2 2.1 7.4c.1 5.6.1 5.6 1.4 2.6 3.5-7.5-.1-18.3-4.4-13.2zm-16.9 7C9.6 24 8 26.3 8.1 28c.1 2.1.2 2.2.6.5.3-1.1 2.8-4.4 5.6-7.2 2.8-2.9 4.9-5.5 4.6-5.8-.3-.2-2.9 1.9-5.7 4.8zM5 19.9c0 1.1.3 2.7.6 3.6.6 1.4.8 1.4 2.5-.1 1.8-1.6 1.8-1.8.3-3.6-2.2-2.3-3.4-2.3-3.4.1zm10.7 2.9c-5.1 5.2-6.1 8.9-2.8 10.9 2.4 1.5 2.7 1.1 7-7.5 2.9-5.7 3.3-8.2 1.3-8.2-.4 0-2.9 2.2-5.5 4.8z" stroke="#0000FF" fill="#0000FF"/>/g>
    </g>
</svg>
